<svg xmlns="http://www.w3.org/2000/svg" version="1.1" xmlns:xlink="http://www.w3.org/1999/xlink" xmlns:svgjs="http://svgjs.dev/svgjs" width="1000" height="1000" viewBox="0 0 1000 1000"><rect width="1000" height="1000" fill="#ffffff"></rect><g transform="matrix(0.7,0,0,0.7,149.57575757575756,282.1265587044535)"><svg viewBox="0 0 396 247" data-background-color="#fce44d" preserveAspectRatio="xMidYMid meet" height="623" width="1000" xmlns="http://www.w3.org/2000/svg" xmlns:xlink="http://www.w3.org/1999/xlink"><g id="tight-bounds" transform="matrix(1,0,0,1,0.2400000000000091,-0.09999999999999432)"><svg viewBox="0 0 395.52 247.2" height="247.2" width="395.52"><g><svg viewBox="0 0 395.52 247.2" height="247.2" width="395.52"><g transform="matrix(1,0,0,1,27.05430960000001,55.825613952755916)"><svg viewBox="0 0 341.41138079999996 135.54877209448816" height="135.54877209448816" width="341.41138079999996"><g><svg viewBox="0 0 341.41138079999996 135.54877209448816" height="135.54877209448816" width="341.41138079999996"><g><svg viewBox="0 0 341.41138079999996 135.54877209448816" height="135.54877209448816" width="341.41138079999996"><g><path d="M0 135.549v-135.549h341.411v135.549z" fill="#000000" stroke="transparent" stroke-width="0" rx="0%" data-fill-palette-color="tertiary"></path><path d="M4.509 131.04v-126.531h332.393v126.531z" fill="#ffffff" stroke="transparent" stroke-width="0" rx="0%" data-fill-palette-color="quaternary"></path><path d="M13.527 122.022v-108.495h314.357v108.495z" fill="#000000" stroke="transparent" stroke-width="0" data-fill-palette-color="tertiary"></path></g><g transform="matrix(1,0,0,1,27.054309599999996,27.054309599999996)" id="textblocktransform"><svg viewBox="0 0 287.30276159999994 81.44015289448816" height="81.44015289448816" width="287.30276159999994" id="textblock"><g><svg viewBox="0 0 287.30276159999994 81.44015289448816" height="81.44015289448816" width="287.30276159999994"><g transform="matrix(1,0,0,1,0,0)"><svg width="287.30276159999994" viewBox="2.5 -36 127.99000000000001 37" height="81.44015289448816" data-palette-color="#fce44d"><path d="M8.2-30.6L8.2 0 3.5 0 3.5-35 15.85-35Q22.05-35 25.1-32.23 28.15-29.45 28.15-23.5L28.15-23.5 28.15 0 23.45 0 23.45-24.15Q23.45-27.55 21.38-29.08 19.3-30.6 15.9-30.6L15.9-30.6 8.2-30.6ZM34.4-17.5L34.4-17.5Q34.45-25.85 39.02-30.43 43.6-35 51.65-35L51.65-35 54.9-35 54.9-30.6 51.05-30.6Q45.5-30.6 42.52-26.93 39.55-23.25 39.45-17.5L39.45-17.5Q39.55-11.75 42.52-8.08 45.5-4.4 51.05-4.4L51.05-4.4 54.9-4.4 54.9 0 51.65 0Q43.6 0 39.02-4.58 34.45-9.15 34.4-17.5ZM71.95-4.4L80.5-4.4 80.5 0 73.2 0Q71.15 0 69.97-0.08 68.8-0.15 67.05-0.68 65.3-1.2 64.09-2.25L64.09-2.25Q62.25-3.95 61.7-6.33 61.15-8.7 61.15-11.9L61.15-11.9 61.15-35 65.84-35 65.84-12Q65.84-9.1 66.5-7.45L66.5-7.45Q67.8-4.4 71.95-4.4L71.95-4.4ZM91.64-30.6L82.99-30.6 82.99-35 104.99-35 104.99-30.6 96.34-30.6 96.34 0 91.64 0 91.64-30.6ZM116.14-30.6L107.49-30.6 107.49-35 129.49-35 129.49-30.6 120.84-30.6 120.84 0 116.14 0 116.14-30.6Z" opacity="1" transform="matrix(1,0,0,1,0,0)" fill="#ffffff" class="undefined-text-0" data-fill-palette-color="quaternary" id="text-0"></path></svg></g></svg></g></svg></g></svg></g><g></g></svg></g></svg></g></svg></g><defs></defs></svg><rect width="395.52" height="247.2" fill="none" stroke="none" visibility="hidden"></rect></g></svg></g></svg>